<svg version="1" xmlns="http://www.w3.org/2000/svg" width="682.667" height="682.667" viewBox="0 0 512.000000 512.000000"><path d="M354.9 15.4c-.2.2-2.6.6-5.4 1-19 2.2-41.1 11.7-59.1 25.4-3.5 2.6-23.1 21.5-43.6 42l-37.3 37.4 5-.8c13.6-2 45.8-.3 56.2 3 1.2.4 3 .9 4 1.1 1 .2 5 1.4 8.8 2.6 3.9 1.3 7.3 2.3 7.8 2.4.4 0 9.4-8.6 20-19 20.3-20.1 25.1-23.6 37.7-28.1 9.4-3.3 24.1-4.1 34-1.9 29.5 6.7 50.9 34.4 49.6 64.1-.5 9.7-.9 12.1-3.2 19.2-1.5 4.3-6.4 13.8-8.9 17.1-.5.7-24 24.4-52 52.6-42.2 42.3-52.2 51.8-57.6 54.8-12 6.7-18.2 8.2-33.4 8.1-11.7 0-13.8-.4-23.2-4.3-10.6-4.4-17.1-9.2-25-18.6-3.9-4.7-9.3-14.3-10.8-19.3-.3-1.2-1.4-2.2-2.2-2.2-.9 0-12 10.3-24.7 23l-23.1 22.9 1.9 3.3c2.3 4.1 11.5 16.3 15.3 20.3 23.8 25.4 57.1 39.7 92.3 39.7 7.4 0 14.9-.2 16.5-.6 1.7-.3 4.8-.9 7-1.1 9-1.2 24.6-6.5 36-12.2 4.6-2.4 15.3-9 16.5-10.3.3-.3 2.3-1.8 4.5-3.4 6-4.4 105.3-103.7 111-111.1 30.6-39.4 36.3-90.8 15-135-6-12.3-6.6-13.3-15.3-24.5-17-21.8-40.9-37.1-69.4-44.6-8.7-2.2-12.9-2.7-27.4-3-9.3-.3-17.2-.3-17.5 0z"/><path d="M220.2 151.2c-2.3.4-5.9.9-8 1.1-17.8 2-43.1 13.4-60 26.9-1.5 1.2-26.6 26.1-55.8 55.3-47.1 47-53.8 54.1-59.7 63-3.6 5.5-8.2 13.6-10.1 17.9-3.7 7.9-8.8 23.6-10.1 31.1-1.1 6.3-1.5 35.5-.5 40.5.4 2.5 1.1 6.3 1.4 8.5 1 5.8 7 23.4 10.7 30.7C39.8 449.7 62 472 85 483.5c12.6 6.3 27.8 10.9 44 13.1 3.5.5 28 .5 28.8 0 .4-.2 3-.7 5.7-1 10.7-1.4 26.6-6.5 37-11.9 16.4-8.4 22.9-14 63-53.9l39-38.7-7 .7c-9.1.8-28.4.8-36-.1-6.3-.7-7.6-1-16.2-2.8-2.9-.5-5.4-1-5.5-1-.2 0-4.1-1.2-8.8-2.8l-8.5-3-18.5 18.3c-23.8 23.5-29.4 27.3-46 31-16 3.7-32.3.6-48.5-9.1-5.7-3.4-16.9-15.8-20.8-23-7.8-14.8-9.7-34.4-4.7-49.3 4.9-14.7 6.9-17.1 57.9-68.3 26.2-26.3 50.3-50 53.6-52.6 11.4-9.2 23.4-13.6 38-14 27-.8 50.8 14.8 60.7 39.6l2.5 6.2 2.4-1.6c3-2 45.9-44.5 45.9-45.5 0-1.2-6.3-10.8-11-16.7-11.8-14.9-30.2-28.7-48.5-36.4-10.9-4.6-18.2-6.6-34.3-9.3-5.3-.9-24.3-1-29-.2z"/></svg>